<svg width="180" height="57" viewBox="0 0 180 57" fill="none" xmlns="http://www.w3.org/2000/svg">
<g clip-path="url(#clip0_38_360)">
<path d="M23.5812 3.4549C22.2925 4.32049 20.8682 5.39238 19.7203 6.58794C17.6836 8.70916 15.6637 11.1006 13.9277 13.4933C12.7549 15.1097 11.2333 17.5625 10.402 19.3667C9.29569 21.7679 8.64041 23.4501 8.03322 26.0881C7.17785 29.8047 7.2958 33.6188 8.16457 37.2146C9.44276 42.5047 13.5335 46.9309 17.6214 50.5239C20.8194 53.3344 25.119 55.1731 28.8967 56.5237L29.287 55.4922C25.5439 54.1548 21.5765 52.3681 18.5117 49.6713C14.569 46.2018 10.9274 41.9707 9.35655 36.9289C8.3998 33.8598 8.17771 30.4925 8.6797 27.2316C9.11948 24.375 10.225 21.5121 11.302 18.9092C12.1874 16.7694 13.2198 15.1025 14.479 13.3469C16.0756 11.1207 17.83 8.94979 19.695 6.96754C20.9023 5.68441 22.5169 4.52601 23.8136 3.65506L23.5812 3.4549Z" fill="white"/>
<path d="M21.9441 53.3711C21.9441 53.3711 19.2907 52.5322 17.185 52.7794C13.842 53.1717 13.5338 55.247 13.5338 55.247C13.5338 55.247 14.875 56.0796 17.7515 55.7632C21.1214 55.3926 21.944 53.3711 21.944 53.3711L21.9441 53.3711Z" fill="white"/>
<path d="M17.4254 50.2717C17.4254 50.2717 15.1892 49.211 13.0691 49.2267C9.39876 49.2539 9.17871 51.2034 9.17871 51.2034C9.17871 51.2034 10.5072 52.1619 13.4468 52.1225C16.8367 52.0771 17.4254 50.2717 17.4254 50.2717Z" fill="white"/>
<path d="M14.0827 47.0122C14.0827 47.0122 11.9565 45.1488 9.89993 44.6334C6.33955 43.7413 5.16028 45.813 5.16028 45.813C5.16028 45.813 6.48373 47.4008 9.33962 48.0981C12.633 48.9023 14.0827 47.0122 14.0827 47.0122Z" fill="white"/>
<path d="M10.3079 41.9915C10.3079 41.9915 8.48959 40.0748 6.00048 39.3101C2.75209 38.312 1.22522 40.2715 1.18066 40.3205C1.18066 40.3205 2.51173 41.9958 5.2888 42.7303C9.01373 43.7155 10.3079 41.9915 10.3079 41.9915Z" fill="white"/>
<path d="M8.50999 37.996C8.50999 37.996 6.81652 35.4172 4.29067 34.2C1.83702 33.0169 0.0444888 34.0244 0 34.0639C0 34.0639 1.26042 36.3673 3.57934 37.4711C6.73001 38.9708 8.51034 37.9957 8.51034 37.9957L8.50999 37.996Z" fill="white"/>
<path d="M7.96431 34.4898C7.06043 33.6395 6.9931 31.3283 5.70116 29.4529C3.89883 26.8364 0.925836 27.0261 0.881348 27.0508C0.881348 27.0508 1.19962 30.3105 3.45345 32.2807C5.84873 34.3745 7.96424 34.49 7.96424 34.49L7.96431 34.4898Z" fill="white"/>
<path d="M7.7147 28.9953C7.7147 28.9953 7.80244 26.162 7.0553 24.0105C6.01302 21.0092 3.16778 20.4199 3.11836 20.4317C3.11836 20.4317 2.65694 23.6411 4.30623 26.1393C6.05906 28.7943 7.71474 28.9952 7.71474 28.9952L7.7147 28.9953Z" fill="white"/>
<path d="M8.9196 23.6855C8.9196 23.6855 9.48713 21.307 9.19962 19.0477C8.76628 15.6425 6.11642 14.9217 6.0658 14.9266C6.0658 14.9266 5.15741 18.0805 6.44969 20.7807C7.82306 23.6504 8.9196 23.6855 8.9196 23.6855Z" fill="white"/>
<path d="M11.2541 17.9845C11.2541 17.9845 12.1769 15.833 12.0587 13.5585C11.8945 10.4019 9.75562 9.06839 9.70486 9.06656C9.70486 9.06656 7.64251 10.9261 8.827 14.9287C9.54552 17.3567 11.2541 17.9846 11.2541 17.9846L11.2541 17.9845Z" fill="white"/>
<path d="M14.2237 13.2973C14.2237 13.2973 15.5951 11.1848 15.9745 8.93909C16.3307 6.83077 15.4753 4.53385 15.2844 4.32275C15.2844 4.32275 13.0529 5.30348 13.1364 9.06734C13.1926 11.5988 14.2237 13.2973 14.2237 13.2973Z" fill="white"/>
<path d="M17.8724 8.77438C17.8724 8.77438 19.5075 7.03311 19.9335 4.65222C20.286 2.6792 19.9306 0.535135 19.5591 0C19.5591 0 17.4263 1.32515 17.2713 4.6764C17.1544 7.20578 17.7033 8.40966 17.8724 8.77466L17.8724 8.77438Z" fill="white"/>
<path d="M20.5192 6.00049C20.5192 6.00049 23.6354 6.11308 25.1842 5.21387C26.9179 4.20733 28.6192 2.02259 28.7534 1.38479C28.7534 1.38479 26.024 0.187967 23.4792 2.37412C21.5585 4.02409 20.6687 5.62703 20.5192 6.00049Z" fill="white"/>
<path d="M17.0855 9.76005C17.0855 9.76005 18.5761 8.0149 21.1374 7.56402C23.1117 7.21652 24.6294 7.53737 25.6039 8.10517C25.6039 8.10517 24.1006 10.0312 21.2192 10.2968C18.6978 10.5291 17.4559 9.91706 17.0854 9.76004L17.0855 9.76005Z" fill="white"/>
<path d="M14.0052 13.7838C14.0052 13.7838 15.4245 12.1099 17.9859 11.659C19.9601 11.3115 20.9082 11.668 21.8826 12.2358C21.8826 12.2358 20.682 14.0729 17.8006 14.3383C15.2792 14.5707 14.3756 13.9408 14.0051 13.7838L14.0052 13.7838Z" fill="white"/>
<path d="M11.015 19.0329C11.015 19.0329 12.3409 16.9698 14.7383 15.9615C17.1949 14.9284 18.4566 15.4217 19.5132 15.8161C19.1763 16.3215 17.7973 18.4283 15.5617 19.0608C13.1252 19.75 11.4067 19.1249 11.015 19.0329Z" fill="white"/>
<path d="M9.24048 23.6947C9.24048 23.6947 10.4154 21.5421 12.7344 20.3649C15.1109 19.1586 16.4047 19.5604 17.4868 19.8783C17.1868 20.4065 15.9622 22.6065 13.7775 23.3973C11.3965 24.2591 9.63771 23.7584 9.24048 23.6947Z" fill="white"/>
<path d="M8.30835 29.235C9.32511 27.9315 9.87787 26.53 11.4422 25.1352C13.3696 23.4168 15.0233 23.9646 16.1457 24.0756C15.5932 25.1134 14.7636 26.755 13.0491 27.9919C10.9956 29.4733 8.71051 29.2238 8.30835 29.2351V29.235Z" fill="white"/>
<path d="M8.43457 34.3396C9.29911 32.9305 9.70938 31.8321 11.1078 30.271C12.8308 28.3477 14.4643 28.6892 15.592 28.6739C15.1591 29.7669 14.4294 31.4021 12.864 32.823C10.9891 34.5249 8.83285 34.2834 8.43457 34.3396Z" fill="white"/>
<path d="M9.54639 38.4099C10.8471 36.4018 10.6829 35.9473 11.956 34.2824C13.3232 32.4942 15.0501 32.5433 16.173 32.4376C15.8291 33.5619 15.3153 35.0827 13.8578 36.6141C12.3035 38.2472 10.6868 38.037 9.54646 38.4099H9.54639Z" fill="white"/>
<path d="M11.6835 42.3984C12.5034 40.6218 12.3619 39.5124 13.1137 38.2531C14.3435 36.1934 15.5491 36.1045 16.6719 35.9988C15.7763 38.5649 15.9837 38.5768 14.9977 40.1397C14.0383 41.6606 12.7348 41.8653 11.6835 42.3984V42.3984Z" fill="white"/>
<path d="M14.2596 45.7523C14.727 43.8522 14.2525 43.2707 14.7513 41.8914C15.5671 39.6355 16.7338 39.3191 17.8161 39.0019C17.6916 40.5163 17.8795 41.4771 17.0307 43.1185C16.4313 44.2776 15.1905 45.029 14.2596 45.7523Z" fill="white"/>
<path d="M19.4524 42.0219C19.4524 42.0219 20.3896 43.8313 20.0783 45.9284C19.6372 48.8998 18.0493 49.345 18.0493 49.345C18.0493 49.345 17.145 47.9944 17.2369 45.2541C17.3351 42.327 19.4524 42.0218 19.4524 42.0218L19.4524 42.0219Z" fill="white"/>
<path d="M22.8352 45.0486C22.8352 45.0486 23.7732 46.8807 23.568 48.9909C23.305 51.6952 21.824 52.3718 21.824 52.3718C21.824 52.3718 20.8911 50.8622 20.8513 48.5837C20.7906 45.1046 22.8353 45.0487 22.8353 45.0487L22.8352 45.0486Z" fill="white"/>
<path d="M156.323 3.4549C157.612 4.32049 159.036 5.39238 160.184 6.58794C162.221 8.70916 164.241 11.1006 165.977 13.4933C167.15 15.1097 168.671 17.5625 169.503 19.3667C170.609 21.7679 171.264 23.4501 171.871 26.0881C172.727 29.8047 172.609 33.6188 171.74 37.2146C170.462 42.5047 166.371 46.9309 162.283 50.5239C159.085 53.3344 154.786 55.1731 151.008 56.5237L150.62 55.4929C154.364 54.1546 158.331 52.3682 161.396 49.6712C165.339 46.2021 168.98 41.9713 170.551 36.9288C171.508 33.8596 171.73 30.492 171.228 27.2315C170.788 24.3749 169.683 21.512 168.606 18.909C167.72 16.7693 166.688 15.1024 165.429 13.3467C163.832 11.1206 162.078 8.94965 160.213 6.9674C159.005 5.68427 157.391 4.52587 156.094 3.65492L156.323 3.4549Z" fill="white"/>
<path d="M157.966 53.3711C157.966 53.3711 160.619 52.5322 162.725 52.7793C166.068 53.1716 166.376 55.247 166.376 55.247C166.376 55.247 165.035 56.0796 162.159 55.7632C158.789 55.3925 157.966 53.3711 157.966 53.3711Z" fill="white"/>
<path d="M162.479 50.2717C162.479 50.2717 164.715 49.211 166.835 49.2267C170.505 49.254 170.725 51.2034 170.725 51.2034C170.725 51.2034 169.397 52.1619 166.457 52.1225C163.067 52.0771 162.479 50.2717 162.479 50.2717Z" fill="white"/>
<path d="M165.827 47.0122C165.827 47.0122 167.954 45.1488 170.01 44.6334C173.571 43.7413 174.75 45.813 174.75 45.813C174.75 45.813 173.426 47.4008 170.57 48.0981C167.277 48.9023 165.827 47.0122 165.827 47.0122Z" fill="white"/>
<path d="M169.599 41.9915C169.599 41.9915 171.418 40.0748 173.907 39.3101C177.155 38.312 178.682 40.2715 178.727 40.3205C178.727 40.3205 177.396 41.9958 174.619 42.7303C170.894 43.7155 169.599 41.9915 169.599 41.9915Z" fill="white"/>
<path d="M171.397 37.996C171.397 37.996 173.091 35.4172 175.617 34.2C178.071 33.0173 179.863 34.0246 179.908 34.0642C179.908 34.0642 178.647 36.3676 176.328 37.4714C173.178 38.9711 171.397 37.996 171.397 37.996Z" fill="white"/>
<path d="M171.94 34.4898C172.844 33.6395 172.911 31.3285 174.203 29.4528C176.006 26.8363 178.979 27.0261 179.023 27.0505C179.023 27.0505 178.705 30.3103 176.451 32.2805C174.056 34.3743 171.94 34.4898 171.94 34.4898Z" fill="white"/>
<path d="M172.194 28.9953C172.194 28.9953 172.106 26.162 172.854 24.0105C173.896 21.0092 176.741 20.4199 176.79 20.4317C176.79 20.4317 177.252 23.6411 175.603 26.1393C173.85 28.7943 172.194 28.9952 172.194 28.9952V28.9953Z" fill="white"/>
<path d="M170.988 23.6855C170.988 23.6855 170.421 21.307 170.708 19.0477C171.142 15.6425 173.792 14.9217 173.842 14.9266C173.842 14.9266 174.751 18.0805 173.458 20.7807C172.085 23.6504 170.988 23.6855 170.988 23.6855Z" fill="white"/>
<path d="M168.655 17.9845C168.655 17.9845 167.732 15.833 167.85 13.5585C168.014 10.4019 170.153 9.06839 170.204 9.06656C170.204 9.06656 172.266 10.9261 171.082 14.9287C170.363 17.3567 168.655 17.9846 168.655 17.9846L168.655 17.9845Z" fill="white"/>
<path d="M165.679 13.2973C165.679 13.2973 164.308 11.1848 163.929 8.93909C163.572 6.83077 164.428 4.53385 164.619 4.32275C164.619 4.32275 166.85 5.30348 166.767 9.06734C166.711 11.5988 165.679 13.2973 165.679 13.2973Z" fill="white"/>
<path d="M162.034 8.77437C162.034 8.77437 160.399 7.0331 159.973 4.65221C159.62 2.67883 159.976 0.534769 160.348 -0.000366211C160.348 -0.000366211 162.48 1.32478 162.635 4.67604C162.752 7.20541 162.203 8.40936 162.034 8.77437Z" fill="white"/>
<path d="M159.39 6.00049C159.39 6.00049 156.274 6.11309 154.725 5.21387C152.992 4.20733 151.29 2.02259 151.156 1.38479C151.156 1.38479 153.886 0.187967 156.43 2.37412C158.351 4.02409 159.241 5.62703 159.39 6.00049Z" fill="white"/>
<path d="M162.824 9.76006C162.824 9.76006 161.333 8.01491 158.772 7.56403C156.798 7.21651 155.28 7.53738 154.306 8.10516C154.306 8.10516 155.809 10.0312 158.69 10.2967C161.212 10.5291 162.453 9.91707 162.824 9.76006Z" fill="white"/>
<path d="M165.898 13.7838C165.898 13.7838 164.479 12.1098 161.917 11.659C159.943 11.3115 158.995 11.668 158.021 12.2358C158.021 12.2358 159.221 14.0728 162.103 14.3383C164.624 14.5706 165.528 13.9408 165.898 13.7838L165.898 13.7838Z" fill="white"/>
<path d="M168.894 19.0329C168.894 19.0329 167.569 16.9698 165.171 15.9615C162.715 14.9284 161.453 15.4217 160.396 15.8161C160.733 16.3215 162.112 18.4283 164.348 19.0607C166.784 19.7501 168.503 19.1248 168.894 19.0329Z" fill="white"/>
<path d="M170.664 23.6947C170.664 23.6947 169.489 21.5421 167.17 20.3649C164.794 19.1586 163.5 19.5604 162.418 19.8783C162.718 20.4065 163.942 22.6065 166.127 23.3973C168.508 24.2591 170.267 23.7585 170.664 23.6948V23.6947Z" fill="white"/>
<path d="M171.595 29.235C170.578 27.9315 170.025 26.53 168.461 25.1352C166.534 23.4168 164.88 23.9646 163.757 24.0756C164.31 25.1134 165.14 26.755 166.854 27.9919C168.908 29.4733 171.193 29.2238 171.595 29.2351V29.235Z" fill="white"/>
<path d="M171.475 34.3396C170.61 32.9305 170.2 31.8321 168.802 30.271C167.079 28.3477 165.445 28.6892 164.318 28.6739C164.75 29.7669 165.48 31.4021 167.045 32.823C168.92 34.5249 171.077 34.2834 171.475 34.3396Z" fill="white"/>
<path d="M170.361 38.4099C169.06 36.4018 169.224 35.9473 167.951 34.2824C166.584 32.4942 164.857 32.5433 163.734 32.4376C164.078 33.5619 164.592 35.0827 166.05 36.6141C167.604 38.2472 169.221 38.037 170.361 38.4099Z" fill="white"/>
<path d="M168.225 42.3984C167.405 40.6218 167.546 39.5124 166.794 38.2531C165.565 36.1934 164.359 36.1045 163.236 35.9988C164.132 38.5649 163.924 38.5768 164.91 40.1397C165.87 41.6606 167.173 41.8653 168.225 42.3984V42.3984Z" fill="white"/>
<path d="M165.644 45.7523C165.177 43.8522 165.651 43.2707 165.153 41.8914C164.337 39.6355 163.17 39.3191 162.088 39.0019C162.212 40.5163 162.024 41.4771 162.873 43.1185C163.473 44.2776 164.713 45.029 165.644 45.7523Z" fill="white"/>
<path d="M160.455 42.0219C160.455 42.0219 159.518 43.8313 159.829 45.9284C160.27 48.8998 161.858 49.345 161.858 49.345C161.858 49.345 162.762 47.9944 162.67 45.2541C162.572 42.327 160.455 42.0218 160.455 42.0218V42.0219Z" fill="white"/>
<path d="M157.071 45.0486C157.071 45.0486 156.133 46.8807 156.338 48.9909C156.601 51.6952 158.082 52.3718 158.082 52.3718C158.082 52.3718 159.015 50.8622 159.055 48.5837C159.115 45.1046 157.071 45.0486 157.071 45.0486Z" fill="white"/>
<path fill-rule="evenodd" clip-rule="evenodd" d="M54.7812 32.5956C54.4923 31.9008 53.5077 31.9008 53.2188 32.5956L51.5718 36.5565L47.2941 36.8994C46.5444 36.9597 46.2402 37.8957 46.8117 38.3853L50.0697 41.1771L49.0743 45.3504C48.8997 46.0821 49.6962 46.6608 50.3388 46.2684L54 44.0319L57.6621 46.2684C58.3038 46.6608 59.1003 46.0821 58.9257 45.3504L57.9303 41.1771L61.1883 38.3853C61.7598 37.8957 61.4556 36.9597 60.7059 36.9003L56.4291 36.5565L54.7812 32.5956Z" fill="white"/>
<path fill-rule="evenodd" clip-rule="evenodd" d="M72.7812 32.5956C72.4923 31.9008 71.5077 31.9008 71.2188 32.5956L69.5718 36.5565L65.2941 36.8994C64.5444 36.9597 64.2402 37.8957 64.8117 38.3853L68.0697 41.1771L67.0743 45.3504C66.8997 46.0821 67.6962 46.6608 68.3388 46.2684L72 44.0319L75.6621 46.2684C76.3038 46.6608 77.1003 46.0821 76.9257 45.3504L75.9303 41.1771L79.1883 38.3853C79.7598 37.8957 79.4556 36.9597 78.7059 36.9003L74.4291 36.5565L72.7812 32.5956Z" fill="white"/>
<path fill-rule="evenodd" clip-rule="evenodd" d="M90.7812 32.5956C90.4923 31.9008 89.5077 31.9008 89.2188 32.5956L87.5718 36.5565L83.2941 36.8994C82.5444 36.9597 82.2402 37.8957 82.8117 38.3853L86.0697 41.1771L85.0743 45.3504C84.8997 46.0821 85.6962 46.6608 86.3388 46.2684L90 44.0319L93.6621 46.2684C94.3038 46.6608 95.1003 46.0821 94.9257 45.3504L93.9303 41.1771L97.1883 38.3853C97.7598 37.8957 97.4556 36.9597 96.7059 36.9003L92.4291 36.5565L90.7812 32.5956Z" fill="white"/>
<path fill-rule="evenodd" clip-rule="evenodd" d="M108.781 32.5956C108.492 31.9008 107.508 31.9008 107.219 32.5956L105.572 36.5565L101.294 36.8994C100.544 36.9597 100.24 37.8957 100.812 38.3853L104.07 41.1771L103.074 45.3504C102.9 46.0821 103.696 46.6608 104.339 46.2684L108 44.0319L111.662 46.2684C112.304 46.6608 113.1 46.0821 112.926 45.3504L111.93 41.1771L115.188 38.3853C115.76 37.8957 115.456 36.9597 114.706 36.9003L110.429 36.5565L108.781 32.5956Z" fill="white"/>
<path fill-rule="evenodd" clip-rule="evenodd" d="M126.781 32.5956C126.492 31.9008 125.508 31.9008 125.219 32.5956L123.572 36.5565L119.294 36.8994C118.544 36.9597 118.24 37.8957 118.812 38.3853L122.07 41.1771L121.074 45.3504C120.9 46.0821 121.696 46.6608 122.339 46.2684L126 44.0319L129.662 46.2684C130.304 46.6608 131.1 46.0821 130.926 45.3504L129.93 41.1771L133.188 38.3853C133.76 37.8957 133.456 36.9597 132.706 36.9003L128.429 36.5565L126.781 32.5956Z" fill="white"/>
</g>
<defs>
<clipPath id="clip0_38_360">
<rect width="180" height="56.5241" fill="white"/>
</clipPath>
</defs>
</svg>
