<?xml version="1.0" encoding="UTF-8"?>
<svg id="Layer_1" data-name="Layer 1" xmlns="http://www.w3.org/2000/svg" viewBox="0 0 112.21 104.12">
  <defs>
    <style>
      .cls-1 {
        fill: #fff;
        stroke-width: 0px;
      }
    </style>
  </defs>
  <path class="cls-1" d="m81.82,53.32c-.8-1.39-2.29-2.25-3.89-2.25h-11.03c-2.48,0-4.5,2.01-4.5,4.5v17.36c0,.99-.81,1.8-1.8,1.8h-5.72c-.99,0-1.8-.81-1.8-1.8v-17.36c0-2.48-2.01-4.5-4.5-4.5h-11.03c-1.61,0-3.09.86-3.89,2.25l-11.06,19.16c-1.73,3,.43,6.75,3.89,6.75h12.24c2.48,0,4.5-2.01,4.5-4.5v-6.96c0-.48-.19-.94-.54-1.28l-2.43-2.39c-.57-.56-1.53-.16-1.53.64v8.2c0,.99-.81,1.8-1.8,1.8h-8.89c-.69,0-1.13-.75-.78-1.35l9.76-16.91c.32-.56.92-.9,1.56-.9h8.19c.99,0,1.8.81,1.8,1.8v17.36c0,2.48,2.01,4.5,4.5,4.5h9.32c2.48,0,4.5-2.01,4.5-4.5v-17.36c0-.99.81-1.8,1.8-1.8h8.19c.64,0,1.24.34,1.56.9l9.76,16.91c.35.6-.09,1.35-.78,1.35h-8.89c-.99,0-1.8-.81-1.8-1.8v-8.2c0-.8-.96-1.2-1.53-.64l-2.43,2.39c-.34.34-.54.8-.54,1.28v6.96c0,2.48,2.01,4.5,4.5,4.5h12.24c3.46,0,5.63-3.75,3.89-6.75l-11.06-19.16Z"/>
  <path class="cls-1" d="m39.26,46.33h2.6c.64,0,1.24-.34,1.56-.9l13.55-23.48c.35-.6,1.21-.6,1.56,0l13.55,23.48c.32.56.92.9,1.56.9h2.6c.69,0,1.13-.75.78-1.35l-17.71-30.67c-.69-1.2-2.42-1.2-3.12,0l-17.71,30.67c-.35.6.09,1.35.78,1.35Z"/>
</svg>